<svg xmlns="http://www.w3.org/2000/svg" width="112.499" height="30" viewBox="80 24 112.499 30"><g data-name="Group 9374"><path d="M140.794 44.461c0 1.358-.157 2.545-.47 3.57a7.597 7.597 0 0 1-.627 1.492 6.77 6.77 0 0 1-.91 1.267c-.46.516-.953.97-1.479 1.363-.521.389-1.09.727-1.706 1.015l-.025.01a10.07 10.07 0 0 1-.93.358 9.529 9.529 0 0 1-2.974.462 9.66 9.66 0 0 1-1.974-.2 9.424 9.424 0 0 1-3.617-1.617 9.738 9.738 0 0 1-1.508-1.388l-.014-.016a7.973 7.973 0 0 1-.893-1.283 8.137 8.137 0 0 1-.63-1.436 9.223 9.223 0 0 1-.366-1.67 14.635 14.635 0 0 1-.119-1.908V30.31l2.935 2.076V44.413c0 .594.026 1.107.078 1.538.052.43.13.81.231 1.14.097.314.227.616.39.907.17.302.377.594.618.875.308.336.642.635 1.003.897a6.344 6.344 0 0 0 2.456 1.079 6.99 6.99 0 0 0 1.41.138 7.05 7.05 0 0 0 1.401-.135c.45-.092.884-.227 1.3-.407.413-.178.803-.4 1.173-.666.362-.262.706-.57 1.03-.926.215-.24.402-.503.563-.786a4.99 4.99 0 0 0 .404-.92c.11-.34.194-.727.25-1.159.057-.449.086-.974.086-1.575V32.48l2.914-2.161V44.46Z" fill="#e6e7e8" fill-rule="evenodd" data-name="Path 12112"/><path d="m165.864 30.315 3.283 2.334v21.038h-3.283V30.315Z" fill="#e6e7e8" fill-rule="evenodd" data-name="Path 12113"/><path d="m144.042 49.954-.006-.01-.075-.142-.085-.182 2.378-1.663.183.237c.232.37.643.76.979 1.022.425.332.926.627 1.502.887a8.853 8.853 0 0 0 1.87.597c.655.133 1.353.2 2.092.2 1.783 0 3.212-.408 4.286-1.223.488-.371.849-.783 1.081-1.234.219-.424.328-.905.328-1.443 0-.45-.073-.842-.218-1.175a2.427 2.427 0 0 0-.658-.873c-.335-.289-.783-.542-1.342-.761-.605-.237-1.328-.424-2.17-.562v-.003l-1.835-.266v.002c-.48-.059-.964-.13-1.45-.212a20.338 20.338 0 0 1-1.272-.257c-.846-.201-1.507-.433-1.982-.695l-.01-.005a5.816 5.816 0 0 1-1.188-.879 5.365 5.365 0 0 1-1.475-2.542 6.019 6.019 0 0 1-.191-1.513c0-.98.196-1.886.59-2.716.383-.812.95-1.53 1.703-2.155a7.368 7.368 0 0 1 2.478-1.355c.897-.289 1.885-.433 2.962-.433.435 0 .88.025 1.335.076.431.048.86.122 1.285.222.43.101.838.226 1.22.374.388.15.765.328 1.128.535l.318.171c.06.035.178.106.352.214a5.512 5.512 0 0 1 .769.57c.511.432.818.73.921.895l.038.063.08.147.085.181-2.426 1.641-.064-.068a5.246 5.246 0 0 0-.934-.784 6.619 6.619 0 0 0-1.206-.626 7.503 7.503 0 0 0-1.392-.4 8.04 8.04 0 0 0-1.487-.135c-.778 0-1.473.097-2.084.291a4.616 4.616 0 0 0-1.544.822c-.422.345-.732.721-.93 1.129a2.978 2.978 0 0 0-.284 1.318c0 .511.116.957.348 1.336.244.4.588.715 1.033.946.227.118.631.243 1.214.375.63.143 1.444.28 2.442.414l.01.005 1.622.227h.015c1.122.172 2.104.415 2.943.73.894.336 1.64.758 2.238 1.268a5.27 5.27 0 0 1 1.45 1.962c.317.742.476 1.569.476 2.478 0 2.17-.864 3.91-2.594 5.215-.812.613-1.752 1.07-2.82 1.371-1.03.29-2.174.436-3.429.436-.53 0-1.058-.033-1.582-.098a11.664 11.664 0 0 1-1.527-.296c-.49-.13-.972-.293-1.44-.492a9.965 9.965 0 0 1-1.305-.668v.001a9.028 9.028 0 0 1-1.664-1.23 8.836 8.836 0 0 1-.646-.645 3.167 3.167 0 0 1-.44-.617Z" fill="#e6e7e8" fill-rule="evenodd" data-name="Path 12114"/><path d="m192.109 33.537.065.068.137.174.109.159-2.089 2.055-.055-.042c-.347-.269-.656-.499-.925-.69-.254-.179-.52-.354-.796-.525a8.562 8.562 0 0 0-.68-.385 5.364 5.364 0 0 0-.588-.249l-.025-.01a6.028 6.028 0 0 0-1.154-.312 8.29 8.29 0 0 0-1.368-.104c-.266 0-.517.01-.75.029-.25.02-.483.05-.696.086a6.44 6.44 0 0 0-1.35.386l-.035.016a7.371 7.371 0 0 0-2.388 1.399h-.005c-.45.385-.86.828-1.227 1.329a9.372 9.372 0 0 0-.976 1.682 9.514 9.514 0 0 0-.63 1.856 8.372 8.372 0 0 0-.204 1.84 8.426 8.426 0 0 0 .646 3.261c.218.535.477 1.037.779 1.506.29.452.631.882 1.02 1.288a8.286 8.286 0 0 0 2.701 1.868c.529.23 1.052.402 1.57.514.504.11 1.02.164 1.545.164a8.609 8.609 0 0 0 2.905-.499V50.4a8.85 8.85 0 0 0 .675-.298c.204-.101.403-.21.595-.329a6.27 6.27 0 0 0 .546-.375c.192-.148.375-.303.55-.466l.055-.047.109-.091.086-.068 2.238 1.849-.044.09-.237.347-.017.018c-.347.423-.797.813-1.35 1.17-.513.332-1.13.643-1.852.934-1.436.577-2.856.866-4.26.866-1.417 0-2.829-.304-4.234-.911a11.346 11.346 0 0 1-3.68-2.548l-.01-.016a14.012 14.012 0 0 1-1.368-1.729 11.112 11.112 0 0 1-.575-.975 13.01 13.01 0 0 1-.5-1.061l-.005-.021a12.354 12.354 0 0 1-.643-2.194 11.749 11.749 0 0 1-.221-2.244c0-1.487.292-2.967.875-4.438.293-.74.638-1.426 1.035-2.057.4-.636.86-1.232 1.38-1.786a10.608 10.608 0 0 1 3.661-2.547 11.23 11.23 0 0 1 2.11-.653 10.92 10.92 0 0 1 2.176-.219c1.36 0 2.683.256 3.967.766.635.238 1.23.534 1.785.887.563.359 1.09.776 1.581 1.253l.036.031Z" fill="#e6e7e8" fill-rule="evenodd" data-name="Path 12115"/><path d="M83.751 26.708V54H80V24l3.751 2.708Z" fill="#2a86c7" fill-rule="evenodd" data-name="Path 12116"/><path d="M116.932 30.315v23.683l-2.495-1.805V35.447l-11.597 8.378-14.096-10.183v-3.331l14.096 10.177 14.092-10.173Z" fill="#e6e7e8" fill-rule="evenodd" data-name="Path 12117"/><path d="m101.396 44.87-2.134 1.535-8.019-5.788v11.577l-2.5 1.805V35.735l12.648 9.13.005.004Z" fill="#e6e7e8" fill-rule="evenodd" data-name="Path 12118"/><path d="m98.466 46.984-6.288 4.535v-9.075l6.288 4.54Z" fill="#2a86c7" fill-rule="evenodd" data-name="Path 12119"/></g></svg>